<mxfile host="app.diagrams.net" agent="Mozilla/5.0 (Windows NT 10.0; Win64; x64) AppleWebKit/537.36 (KHTML, like Gecko) Chrome/130.0.0.0 Safari/537.36" version="24.8.3">
  <diagram id="R2lEEEUBdFMjLlhIrx00" name="Page-1">
    <mxGraphModel dx="2085" dy="1714" grid="1" gridSize="10" guides="1" tooltips="1" connect="1" arrows="1" fold="1" page="1" pageScale="1" pageWidth="850" pageHeight="1100" math="0" shadow="0" extFonts="Permanent Marker^https://fonts.googleapis.com/css?family=Permanent+Marker">
      <root>
        <mxCell id="0" />
        <mxCell id="1" parent="0" />
        <mxCell id="xAXoBzwD9UsZwMaJWseo-3" value="2.1&lt;div&gt;Log in Process&lt;/div&gt;" style="shape=ellipse;html=1;dashed=0;whiteSpace=wrap;aspect=fixed;perimeter=ellipsePerimeter;" parent="1" vertex="1">
          <mxGeometry x="250" y="135" width="90" height="90" as="geometry" />
        </mxCell>
        <mxCell id="xAXoBzwD9UsZwMaJWseo-4" value="User" style="html=1;dashed=0;whiteSpace=wrap;" parent="1" vertex="1">
          <mxGeometry x="10" y="170" width="100" height="50" as="geometry" />
        </mxCell>
        <mxCell id="xAXoBzwD9UsZwMaJWseo-5" value="2.2&lt;div&gt;Sign up process&lt;/div&gt;" style="shape=ellipse;html=1;dashed=0;whiteSpace=wrap;aspect=fixed;perimeter=ellipsePerimeter;" parent="1" vertex="1">
          <mxGeometry x="-10" y="-90" width="90" height="90" as="geometry" />
        </mxCell>
        <mxCell id="xAXoBzwD9UsZwMaJWseo-10" value="Log in information Storage" style="html=1;dashed=0;whiteSpace=wrap;shape=partialRectangle;right=0;" parent="1" vertex="1">
          <mxGeometry x="110" y="50" width="135" height="30" as="geometry" />
        </mxCell>
        <mxCell id="xAXoBzwD9UsZwMaJWseo-12" value="Log in to the Site" style="html=1;dashed=0;whiteSpace=wrap;" parent="1" vertex="1">
          <mxGeometry x="420" y="60" width="120" height="50" as="geometry" />
        </mxCell>
        <mxCell id="xAXoBzwD9UsZwMaJWseo-14" value="2.4&lt;div&gt;View Other&#39;s post&lt;/div&gt;" style="shape=ellipse;html=1;dashed=0;whiteSpace=wrap;aspect=fixed;perimeter=ellipsePerimeter;" parent="1" vertex="1">
          <mxGeometry x="670" y="-110" width="90" height="90" as="geometry" />
        </mxCell>
        <mxCell id="xAXoBzwD9UsZwMaJWseo-18" value="2.5&lt;div&gt;React&lt;/div&gt;" style="shape=ellipse;html=1;dashed=0;whiteSpace=wrap;aspect=fixed;perimeter=ellipsePerimeter;" parent="1" vertex="1">
          <mxGeometry x="840" y="120" width="85" height="85" as="geometry" />
        </mxCell>
        <mxCell id="xAXoBzwD9UsZwMaJWseo-19" value="&amp;nbsp;Number of Reaction Storage" style="html=1;dashed=0;whiteSpace=wrap;shape=partialRectangle;right=0;" parent="1" vertex="1">
          <mxGeometry x="880" y="330" width="100" height="30" as="geometry" />
        </mxCell>
        <mxCell id="xAXoBzwD9UsZwMaJWseo-22" value="2.6&lt;div&gt;Comment&lt;/div&gt;" style="shape=ellipse;html=1;dashed=0;whiteSpace=wrap;perimeter=ellipsePerimeter;" parent="1" vertex="1">
          <mxGeometry x="990" y="45" width="80" height="80" as="geometry" />
        </mxCell>
        <mxCell id="xAXoBzwD9UsZwMaJWseo-23" value="Number of Comment of specific post Srtorage" style="html=1;dashed=0;whiteSpace=wrap;shape=partialRectangle;right=0;" parent="1" vertex="1">
          <mxGeometry x="1060" y="225" width="130" height="30" as="geometry" />
        </mxCell>
        <mxCell id="xAXoBzwD9UsZwMaJWseo-28" value="2.7&lt;div&gt;Share&lt;/div&gt;" style="shape=ellipse;html=1;dashed=0;whiteSpace=wrap;perimeter=ellipsePerimeter;" parent="1" vertex="1">
          <mxGeometry x="650" y="125" width="85" height="85" as="geometry" />
        </mxCell>
        <mxCell id="xAXoBzwD9UsZwMaJWseo-29" value="Number of share Storage" style="html=1;dashed=0;whiteSpace=wrap;shape=partialRectangle;right=0;" parent="1" vertex="1">
          <mxGeometry x="690" y="290" width="100" height="30" as="geometry" />
        </mxCell>
        <mxCell id="xAXoBzwD9UsZwMaJWseo-31" value="2.8&lt;div&gt;Post&lt;/div&gt;" style="shape=ellipse;html=1;dashed=0;whiteSpace=wrap;perimeter=ellipsePerimeter;" parent="1" vertex="1">
          <mxGeometry x="440" y="220" width="80" height="70" as="geometry" />
        </mxCell>
        <mxCell id="xAXoBzwD9UsZwMaJWseo-33" value="2.9&lt;div&gt;categorized&lt;/div&gt;" style="shape=ellipse;html=1;dashed=0;whiteSpace=wrap;perimeter=ellipsePerimeter;" parent="1" vertex="1">
          <mxGeometry x="230" y="305" width="80" height="80" as="geometry" />
        </mxCell>
        <mxCell id="xAXoBzwD9UsZwMaJWseo-34" value="2.9&lt;div&gt;Described&lt;/div&gt;" style="shape=ellipse;html=1;dashed=0;whiteSpace=wrap;perimeter=ellipsePerimeter;" parent="1" vertex="1">
          <mxGeometry x="470" y="400" width="70" height="70" as="geometry" />
        </mxCell>
        <mxCell id="xAXoBzwD9UsZwMaJWseo-35" value="2.10&lt;div&gt;Update&lt;/div&gt;" style="shape=ellipse;html=1;dashed=0;whiteSpace=wrap;aspect=fixed;perimeter=ellipsePerimeter;" parent="1" vertex="1">
          <mxGeometry x="595" y="360" width="70" height="70" as="geometry" />
        </mxCell>
        <mxCell id="xAXoBzwD9UsZwMaJWseo-36" value="Update the post" style="endArrow=classic;html=1;rounded=0;entryX=0.314;entryY=0.086;entryDx=0;entryDy=0;entryPerimeter=0;exitX=0.925;exitY=0.743;exitDx=0;exitDy=0;exitPerimeter=0;" parent="1" source="xAXoBzwD9UsZwMaJWseo-31" target="xAXoBzwD9UsZwMaJWseo-35" edge="1">
          <mxGeometry width="50" height="50" relative="1" as="geometry">
            <mxPoint x="470" y="300" as="sourcePoint" />
            <mxPoint x="480" y="230" as="targetPoint" />
            <Array as="points" />
          </mxGeometry>
        </mxCell>
        <mxCell id="xAXoBzwD9UsZwMaJWseo-37" value="Described the post" style="endArrow=classic;html=1;rounded=0;entryX=0.5;entryY=0;entryDx=0;entryDy=0;exitX=0.75;exitY=0.914;exitDx=0;exitDy=0;exitPerimeter=0;" parent="1" source="xAXoBzwD9UsZwMaJWseo-31" target="xAXoBzwD9UsZwMaJWseo-34" edge="1">
          <mxGeometry width="50" height="50" relative="1" as="geometry">
            <mxPoint x="450" y="301" as="sourcePoint" />
            <mxPoint x="495" y="320" as="targetPoint" />
          </mxGeometry>
        </mxCell>
        <mxCell id="xAXoBzwD9UsZwMaJWseo-40" value="Storage of Post through user id" style="html=1;dashed=0;whiteSpace=wrap;shape=partialRectangle;right=0;" parent="1" vertex="1">
          <mxGeometry x="320" y="400" width="100" height="30" as="geometry" />
        </mxCell>
        <mxCell id="iftqBZpmIzI7JKc8YBEl-1" value="2.3&amp;nbsp;&lt;div&gt;Match the given information and stored information&amp;nbsp;&lt;/div&gt;&lt;div&gt;through user id.&lt;/div&gt;" style="ellipse;whiteSpace=wrap;html=1;aspect=fixed;" parent="1" vertex="1">
          <mxGeometry x="350" y="-140" width="110" height="110" as="geometry" />
        </mxCell>
        <mxCell id="iftqBZpmIzI7JKc8YBEl-15" style="edgeStyle=orthogonalEdgeStyle;rounded=0;orthogonalLoop=1;jettySize=auto;html=1;exitX=0.5;exitY=1;exitDx=0;exitDy=0;" parent="1" source="xAXoBzwD9UsZwMaJWseo-23" target="xAXoBzwD9UsZwMaJWseo-23" edge="1">
          <mxGeometry relative="1" as="geometry" />
        </mxCell>
        <mxCell id="DZZDsIPuY-eMWsAbhb5x-1" value="" style="endArrow=classic;html=1;rounded=0;exitX=0.5;exitY=1;exitDx=0;exitDy=0;" edge="1" parent="1" source="xAXoBzwD9UsZwMaJWseo-14" target="xAXoBzwD9UsZwMaJWseo-18">
          <mxGeometry relative="1" as="geometry">
            <mxPoint x="530" y="180" as="sourcePoint" />
            <mxPoint x="630" y="180" as="targetPoint" />
          </mxGeometry>
        </mxCell>
        <mxCell id="DZZDsIPuY-eMWsAbhb5x-2" value="User can react&amp;nbsp;&lt;div&gt;on other&#39;s post&lt;/div&gt;" style="edgeLabel;resizable=0;html=1;;align=center;verticalAlign=middle;" connectable="0" vertex="1" parent="DZZDsIPuY-eMWsAbhb5x-1">
          <mxGeometry relative="1" as="geometry" />
        </mxCell>
        <mxCell id="DZZDsIPuY-eMWsAbhb5x-3" value="" style="endArrow=classic;html=1;rounded=0;exitX=0.947;exitY=0.813;exitDx=0;exitDy=0;exitPerimeter=0;entryX=0;entryY=0;entryDx=0;entryDy=0;" edge="1" parent="1" source="xAXoBzwD9UsZwMaJWseo-14" target="xAXoBzwD9UsZwMaJWseo-22">
          <mxGeometry relative="1" as="geometry">
            <mxPoint x="790" y="90" as="sourcePoint" />
            <mxPoint x="890" y="90" as="targetPoint" />
          </mxGeometry>
        </mxCell>
        <mxCell id="DZZDsIPuY-eMWsAbhb5x-4" value="User can comment&lt;div&gt;on other&#39;s post&lt;/div&gt;" style="edgeLabel;resizable=0;html=1;;align=center;verticalAlign=middle;" connectable="0" vertex="1" parent="DZZDsIPuY-eMWsAbhb5x-3">
          <mxGeometry relative="1" as="geometry" />
        </mxCell>
        <mxCell id="DZZDsIPuY-eMWsAbhb5x-5" value="" style="endArrow=classic;html=1;rounded=0;exitX=0.319;exitY=0.97;exitDx=0;exitDy=0;exitPerimeter=0;entryX=0.5;entryY=0;entryDx=0;entryDy=0;" edge="1" parent="1" source="xAXoBzwD9UsZwMaJWseo-14" target="xAXoBzwD9UsZwMaJWseo-28">
          <mxGeometry relative="1" as="geometry">
            <mxPoint x="683.6199999999999" y="-26.480000000000246" as="sourcePoint" />
            <mxPoint x="703.9650000000001" y="130.0999999999999" as="targetPoint" />
          </mxGeometry>
        </mxCell>
        <mxCell id="DZZDsIPuY-eMWsAbhb5x-6" value="User Can Share&amp;nbsp;&lt;div&gt;other&#39;s post&lt;/div&gt;" style="edgeLabel;resizable=0;html=1;;align=center;verticalAlign=middle;" connectable="0" vertex="1" parent="DZZDsIPuY-eMWsAbhb5x-5">
          <mxGeometry relative="1" as="geometry" />
        </mxCell>
        <mxCell id="DZZDsIPuY-eMWsAbhb5x-7" value="User can view&lt;div&gt;other&#39;s post.&lt;/div&gt;" style="endArrow=classic;html=1;rounded=0;exitX=1;exitY=0.5;exitDx=0;exitDy=0;entryX=0.028;entryY=0.778;entryDx=0;entryDy=0;entryPerimeter=0;" edge="1" parent="1">
          <mxGeometry relative="1" as="geometry">
            <mxPoint x="540" y="63" as="sourcePoint" />
            <mxPoint x="670.0200000000002" y="-61.98000000000002" as="targetPoint" />
          </mxGeometry>
        </mxCell>
        <mxCell id="DZZDsIPuY-eMWsAbhb5x-9" value="" style="endArrow=classic;html=1;rounded=0;entryX=0.5;entryY=0;entryDx=0;entryDy=0;exitX=1;exitY=1;exitDx=0;exitDy=0;" edge="1" parent="1" source="iftqBZpmIzI7JKc8YBEl-1" target="xAXoBzwD9UsZwMaJWseo-12">
          <mxGeometry relative="1" as="geometry">
            <mxPoint x="380" as="sourcePoint" />
            <mxPoint x="480" as="targetPoint" />
          </mxGeometry>
        </mxCell>
        <mxCell id="DZZDsIPuY-eMWsAbhb5x-10" value="User Log in to the sight" style="edgeLabel;resizable=0;html=1;;align=center;verticalAlign=middle;" connectable="0" vertex="1" parent="DZZDsIPuY-eMWsAbhb5x-9">
          <mxGeometry relative="1" as="geometry" />
        </mxCell>
        <mxCell id="DZZDsIPuY-eMWsAbhb5x-11" value="" style="endArrow=classic;html=1;rounded=0;entryX=0;entryY=0.5;entryDx=0;entryDy=0;exitX=0.563;exitY=-0.008;exitDx=0;exitDy=0;exitPerimeter=0;" edge="1" parent="1" source="xAXoBzwD9UsZwMaJWseo-10" target="iftqBZpmIzI7JKc8YBEl-1">
          <mxGeometry relative="1" as="geometry">
            <mxPoint x="150" y="58.81999999999999" as="sourcePoint" />
            <mxPoint x="290.99000000000024" y="-51.90000000000009" as="targetPoint" />
          </mxGeometry>
        </mxCell>
        <mxCell id="DZZDsIPuY-eMWsAbhb5x-12" value="By following some algorithm which&lt;div&gt;is given by developer which is match the&amp;nbsp;&lt;/div&gt;&lt;div&gt;information given by the user and stored data.&lt;/div&gt;" style="edgeLabel;resizable=0;html=1;;align=center;verticalAlign=middle;" connectable="0" vertex="1" parent="DZZDsIPuY-eMWsAbhb5x-11">
          <mxGeometry relative="1" as="geometry" />
        </mxCell>
        <mxCell id="DZZDsIPuY-eMWsAbhb5x-14" value="" style="endArrow=classic;html=1;rounded=0;exitX=0;exitY=0;exitDx=0;exitDy=0;entryX=0.651;entryY=1.165;entryDx=0;entryDy=0;entryPerimeter=0;" edge="1" parent="1" source="xAXoBzwD9UsZwMaJWseo-3" target="xAXoBzwD9UsZwMaJWseo-10">
          <mxGeometry relative="1" as="geometry">
            <mxPoint x="240" y="135" as="sourcePoint" />
            <mxPoint x="340" y="135" as="targetPoint" />
          </mxGeometry>
        </mxCell>
        <mxCell id="DZZDsIPuY-eMWsAbhb5x-15" value="Data storage" style="edgeLabel;resizable=0;html=1;;align=center;verticalAlign=middle;" connectable="0" vertex="1" parent="DZZDsIPuY-eMWsAbhb5x-14">
          <mxGeometry relative="1" as="geometry" />
        </mxCell>
        <mxCell id="DZZDsIPuY-eMWsAbhb5x-16" value="" style="endArrow=classic;html=1;rounded=0;exitX=1;exitY=0.5;exitDx=0;exitDy=0;entryX=-0.02;entryY=0.601;entryDx=0;entryDy=0;entryPerimeter=0;" edge="1" parent="1" source="xAXoBzwD9UsZwMaJWseo-4" target="xAXoBzwD9UsZwMaJWseo-3">
          <mxGeometry relative="1" as="geometry">
            <mxPoint x="130" y="194.41" as="sourcePoint" />
            <mxPoint x="230" y="194.41" as="targetPoint" />
          </mxGeometry>
        </mxCell>
        <mxCell id="DZZDsIPuY-eMWsAbhb5x-17" value="Log in if user has id" style="edgeLabel;resizable=0;html=1;;align=center;verticalAlign=middle;" connectable="0" vertex="1" parent="DZZDsIPuY-eMWsAbhb5x-16">
          <mxGeometry relative="1" as="geometry" />
        </mxCell>
        <mxCell id="DZZDsIPuY-eMWsAbhb5x-18" value="" style="endArrow=classic;html=1;rounded=0;entryX=0.333;entryY=1;entryDx=0;entryDy=0;entryPerimeter=0;" edge="1" parent="1" target="xAXoBzwD9UsZwMaJWseo-5">
          <mxGeometry relative="1" as="geometry">
            <mxPoint x="60" y="170" as="sourcePoint" />
            <mxPoint x="170" y="264.40999999999997" as="targetPoint" />
          </mxGeometry>
        </mxCell>
        <mxCell id="DZZDsIPuY-eMWsAbhb5x-19" value="Sign up if user has no id" style="edgeLabel;resizable=0;html=1;;align=center;verticalAlign=middle;" connectable="0" vertex="1" parent="DZZDsIPuY-eMWsAbhb5x-18">
          <mxGeometry relative="1" as="geometry" />
        </mxCell>
        <mxCell id="DZZDsIPuY-eMWsAbhb5x-20" value="" style="endArrow=classic;html=1;rounded=0;entryX=0.358;entryY=0.004;entryDx=0;entryDy=0;entryPerimeter=0;" edge="1" parent="1" target="xAXoBzwD9UsZwMaJWseo-10">
          <mxGeometry relative="1" as="geometry">
            <mxPoint x="50" y="-1" as="sourcePoint" />
            <mxPoint x="150" y="-1" as="targetPoint" />
          </mxGeometry>
        </mxCell>
        <mxCell id="DZZDsIPuY-eMWsAbhb5x-21" value="Data Storage" style="edgeLabel;resizable=0;html=1;;align=center;verticalAlign=middle;" connectable="0" vertex="1" parent="DZZDsIPuY-eMWsAbhb5x-20">
          <mxGeometry relative="1" as="geometry" />
        </mxCell>
        <mxCell id="DZZDsIPuY-eMWsAbhb5x-22" value="" style="endArrow=classic;html=1;rounded=0;exitX=0.411;exitY=1.038;exitDx=0;exitDy=0;exitPerimeter=0;entryX=0.5;entryY=0;entryDx=0;entryDy=0;" edge="1" parent="1" source="xAXoBzwD9UsZwMaJWseo-12" target="xAXoBzwD9UsZwMaJWseo-31">
          <mxGeometry relative="1" as="geometry">
            <mxPoint x="530" y="180" as="sourcePoint" />
            <mxPoint x="630" y="180" as="targetPoint" />
          </mxGeometry>
        </mxCell>
        <mxCell id="DZZDsIPuY-eMWsAbhb5x-23" value="User Can post" style="edgeLabel;resizable=0;html=1;;align=center;verticalAlign=middle;" connectable="0" vertex="1" parent="DZZDsIPuY-eMWsAbhb5x-22">
          <mxGeometry relative="1" as="geometry" />
        </mxCell>
        <mxCell id="DZZDsIPuY-eMWsAbhb5x-24" value="" style="endArrow=classic;html=1;rounded=0;exitX=0.647;exitY=1;exitDx=0;exitDy=0;exitPerimeter=0;entryX=0.398;entryY=-0.047;entryDx=0;entryDy=0;entryPerimeter=0;" edge="1" parent="1" source="xAXoBzwD9UsZwMaJWseo-28" target="xAXoBzwD9UsZwMaJWseo-29">
          <mxGeometry relative="1" as="geometry">
            <mxPoint x="530" y="180" as="sourcePoint" />
            <mxPoint x="650" y="290" as="targetPoint" />
          </mxGeometry>
        </mxCell>
        <mxCell id="DZZDsIPuY-eMWsAbhb5x-25" value="No. of share storage" style="edgeLabel;resizable=0;html=1;;align=center;verticalAlign=middle;" connectable="0" vertex="1" parent="DZZDsIPuY-eMWsAbhb5x-24">
          <mxGeometry relative="1" as="geometry" />
        </mxCell>
        <mxCell id="DZZDsIPuY-eMWsAbhb5x-26" value="" style="endArrow=classic;html=1;rounded=0;exitX=0.706;exitY=0.941;exitDx=0;exitDy=0;exitPerimeter=0;entryX=0.5;entryY=0;entryDx=0;entryDy=0;" edge="1" parent="1" source="xAXoBzwD9UsZwMaJWseo-18" target="xAXoBzwD9UsZwMaJWseo-19">
          <mxGeometry relative="1" as="geometry">
            <mxPoint x="770" y="290" as="sourcePoint" />
            <mxPoint x="930" y="290" as="targetPoint" />
          </mxGeometry>
        </mxCell>
        <mxCell id="DZZDsIPuY-eMWsAbhb5x-27" value="No. of react storage" style="edgeLabel;resizable=0;html=1;;align=center;verticalAlign=middle;" connectable="0" vertex="1" parent="DZZDsIPuY-eMWsAbhb5x-26">
          <mxGeometry relative="1" as="geometry" />
        </mxCell>
        <mxCell id="DZZDsIPuY-eMWsAbhb5x-29" value="" style="endArrow=classic;html=1;rounded=0;exitX=0.715;exitY=1.018;exitDx=0;exitDy=0;exitPerimeter=0;entryX=0.5;entryY=0;entryDx=0;entryDy=0;" edge="1" parent="1" source="xAXoBzwD9UsZwMaJWseo-22" target="xAXoBzwD9UsZwMaJWseo-23">
          <mxGeometry relative="1" as="geometry">
            <mxPoint x="1080" y="133.82" as="sourcePoint" />
            <mxPoint x="1180" y="133.82" as="targetPoint" />
          </mxGeometry>
        </mxCell>
        <mxCell id="DZZDsIPuY-eMWsAbhb5x-30" value="No. of comment storage" style="edgeLabel;resizable=0;html=1;;align=center;verticalAlign=middle;" connectable="0" vertex="1" parent="DZZDsIPuY-eMWsAbhb5x-29">
          <mxGeometry relative="1" as="geometry" />
        </mxCell>
        <mxCell id="DZZDsIPuY-eMWsAbhb5x-31" value="" style="endArrow=classic;html=1;rounded=0;exitX=0;exitY=1;exitDx=0;exitDy=0;" edge="1" parent="1" source="xAXoBzwD9UsZwMaJWseo-31" target="xAXoBzwD9UsZwMaJWseo-33">
          <mxGeometry relative="1" as="geometry">
            <mxPoint x="530" y="180" as="sourcePoint" />
            <mxPoint x="630" y="180" as="targetPoint" />
          </mxGeometry>
        </mxCell>
        <mxCell id="DZZDsIPuY-eMWsAbhb5x-32" value="Categorized the post" style="edgeLabel;resizable=0;html=1;;align=center;verticalAlign=middle;" connectable="0" vertex="1" parent="DZZDsIPuY-eMWsAbhb5x-31">
          <mxGeometry relative="1" as="geometry" />
        </mxCell>
        <mxCell id="DZZDsIPuY-eMWsAbhb5x-34" value="Storage for post" style="endArrow=classic;startArrow=classic;html=1;rounded=0;exitX=0.591;exitY=-0.02;exitDx=0;exitDy=0;exitPerimeter=0;entryX=0.5;entryY=1;entryDx=0;entryDy=0;" edge="1" parent="1" source="xAXoBzwD9UsZwMaJWseo-40" target="xAXoBzwD9UsZwMaJWseo-31">
          <mxGeometry x="-0.0406" y="10" width="50" height="50" relative="1" as="geometry">
            <mxPoint x="425" y="340" as="sourcePoint" />
            <mxPoint x="475" y="290" as="targetPoint" />
            <mxPoint as="offset" />
          </mxGeometry>
        </mxCell>
        <mxCell id="DZZDsIPuY-eMWsAbhb5x-37" value="&lt;b&gt;&lt;font style=&quot;font-size: 20px;&quot;&gt;DFD Level-2&lt;/font&gt;&lt;/b&gt;" style="text;html=1;align=center;verticalAlign=middle;whiteSpace=wrap;rounded=0;" vertex="1" parent="1">
          <mxGeometry x="820" y="390" width="200" height="80" as="geometry" />
        </mxCell>
      </root>
    </mxGraphModel>
  </diagram>
</mxfile>
